<svg width="16" height="16" viewBox="0 0 16 16" fill="none" xmlns="http://www.w3.org/2000/svg">
<path d="M8.00196 4.23998C5.92098 4.23998 4.24245 5.91888 4.24245 8.00033C4.24245 10.0818 5.92098 11.7607 8.00196 11.7607C10.0829 11.7607 11.7615 10.0818 11.7615 8.00033C11.7615 5.91888 10.0829 4.23998 8.00196 4.23998ZM8.00196 10.445C6.65718 10.445 5.55779 9.34868 5.55779 8.00033C5.55779 6.65197 6.6539 5.55561 8.00196 5.55561C9.35002 5.55561 10.4461 6.65197 10.4461 8.00033C10.4461 9.34868 9.34675 10.445 8.00196 10.445ZM12.7921 4.08616C12.7921 4.57379 12.3995 4.96325 11.9153 4.96325C11.4277 4.96325 11.0384 4.57052 11.0384 4.08616C11.0384 3.6018 11.431 3.20907 11.9153 3.20907C12.3995 3.20907 12.7921 3.6018 12.7921 4.08616ZM15.2821 4.97634C15.2265 3.80143 14.9582 2.76071 14.0977 1.90326C13.2404 1.04581 12.1999 0.777446 11.0253 0.718537C9.81464 0.64981 6.18601 0.64981 4.97538 0.718537C3.80401 0.774174 2.76352 1.04254 1.90298 1.89999C1.04245 2.75744 0.777422 3.79816 0.718526 4.97307C0.649814 6.18397 0.649814 9.81341 0.718526 11.0243C0.77415 12.1992 1.04245 13.2399 1.90298 14.0974C2.76352 14.9548 3.80073 15.2232 4.97538 15.2821C6.18601 15.3508 9.81464 15.3508 11.0253 15.2821C12.1999 15.2265 13.2404 14.9581 14.0977 14.0974C14.9549 13.2399 15.2232 12.1992 15.2821 11.0243C15.3508 9.81341 15.3508 6.18724 15.2821 4.97634ZM13.7181 12.3236C13.4629 12.965 12.9688 13.4592 12.3243 13.7178C11.359 14.1007 9.06863 14.0123 8.00196 14.0123C6.93529 14.0123 4.64163 14.0974 3.67967 13.7178C3.03836 13.4625 2.54429 12.9683 2.28581 12.3236C1.90298 11.3581 1.99133 9.06723 1.99133 8.00033C1.99133 6.93342 1.90626 4.63925 2.28581 3.67707C2.54102 3.03562 3.03509 2.54144 3.67967 2.28289C4.64491 1.89999 6.93529 1.98835 8.00196 1.98835C9.06863 1.98835 11.3623 1.90326 12.3243 2.28289C12.9656 2.53817 13.4596 3.03235 13.7181 3.67707C14.1009 4.64252 14.0126 6.93342 14.0126 8.00033C14.0126 9.06723 14.1009 11.3614 13.7181 12.3236Z" fill="#A3A3A3"/>
</svg>
