<svg width="16" height="14" viewBox="0 0 16 14" fill="none" xmlns="http://www.w3.org/2000/svg">
<path d="M14.3553 3.74149C14.3655 3.88362 14.3655 4.02577 14.3655 4.1679C14.3655 8.5029 11.066 13.4978 5.03553 13.4978C3.17766 13.4978 1.45178 12.9597 0 12.0258C0.263969 12.0562 0.51775 12.0664 0.791875 12.0664C2.32484 12.0664 3.73603 11.5486 4.86294 10.6654C3.42131 10.6349 2.21319 9.69074 1.79694 8.39124C2 8.42168 2.20303 8.44199 2.41625 8.44199C2.71066 8.44199 3.00509 8.40137 3.27919 8.33034C1.77666 8.02574 0.649719 6.70596 0.649719 5.11205V5.07146C1.08625 5.31512 1.59391 5.4674 2.13194 5.48768C1.24869 4.89884 0.670031 3.89377 0.670031 2.75671C0.670031 2.14759 0.832437 1.58921 1.11672 1.1019C2.73094 3.09174 5.15734 4.39121 7.87812 4.53337C7.82737 4.28971 7.79691 4.03593 7.79691 3.78212C7.79691 1.97499 9.25884 0.50293 11.0761 0.50293C12.0202 0.50293 12.873 0.898867 13.472 1.53846C14.2131 1.39634 14.9238 1.12221 15.5532 0.746586C15.3096 1.50802 14.7918 2.14762 14.1116 2.55368C14.7715 2.48265 15.4111 2.29987 15.9999 2.04609C15.5533 2.6958 14.9949 3.27446 14.3553 3.74149Z" fill="#A3A3A3"/>
</svg>
