<svg width="20" height="20" viewBox="0 0 20 20" fill="none" xmlns="http://www.w3.org/2000/svg">
<path fill-rule="evenodd" clip-rule="evenodd" d="M19.5999 10.0004C19.5999 15.3023 15.3018 19.6004 9.9999 19.6004C4.69797 19.6004 0.399902 15.3023 0.399902 10.0004C0.399902 4.69846 4.69797 0.400391 9.9999 0.400391C15.3018 0.400391 19.5999 4.69846 19.5999 10.0004ZM9.99992 6.40039C9.55726 6.40039 9.16902 6.63945 8.95972 7.00126C8.62787 7.57494 7.8938 7.77097 7.32013 7.43912C6.74645 7.10727 6.55042 6.37319 6.88227 5.79952C7.50291 4.72661 8.6659 4.00039 9.99992 4.00039C11.9881 4.00039 13.5999 5.61217 13.5999 7.60039C13.5999 9.16785 12.5982 10.5013 11.1999 10.9955V11.2004C11.1999 11.8631 10.6627 12.4004 9.99992 12.4004C9.33718 12.4004 8.79992 11.8631 8.79992 11.2004V10.0004C8.79992 9.33765 9.33718 8.80039 9.99992 8.80039C10.6627 8.80039 11.1999 8.26313 11.1999 7.60039C11.1999 6.93765 10.6627 6.40039 9.99992 6.40039ZM9.9999 16.0004C10.6626 16.0004 11.1999 15.4631 11.1999 14.8004C11.1999 14.1376 10.6626 13.6004 9.9999 13.6004C9.33716 13.6004 8.7999 14.1376 8.7999 14.8004C8.7999 15.4631 9.33716 16.0004 9.9999 16.0004Z" fill="white"/>
</svg>
