<?xml version="1.0" encoding="utf-8"?>
<svg version="1.1" id="Layer_1" xmlns="http://www.w3.org/2000/svg" xmlns:xlink="http://www.w3.org/1999/xlink" x="0px" y="0px"
	 viewBox="0 0 1131.4 1478.07" style="enable-background:new 0 0 1131.4 1478.07;" xml:space="preserve">
<style type="text/css">
	.st0{ fill:#7c3aed; }
</style>
<g>
	<g>
		<g>
			<path class="st0" d="M1010.69,583.56c-12.45-15.55-213.7-218.64-213.7-218.64c-45.78-45.78-105.93-77.18-173.02-86.71
				c-14.17-2.04-28.6-3.06-43.33-3.06c-122.4,0-228.28,72.24-277.17,176.33c-18.56,39.41-28.9,83.45-28.9,129.79
				c0,14.73,1.07,29.21,3.11,43.38c6.47,45.78,23.14,88.29,47.61,125.25c9.18,13.87,19.47,26.97,30.74,39.1
				c5.4,5.86,182.65,183.32,186.02,186.02c10.5,8.56,24.01,13.66,38.59,13.66c14.58,0,28.09-5.1,38.59-13.66
				c3.36-2.7,6.42-5.76,9.13-9.13c8.56-10.55,13.66-23.96,13.66-38.59c0-14.78-5.2-28.24-13.87-38.84l-0.15-0.2
				c-1.17-1.38-183.32-183.52-183.32-183.52l-0.36-0.41c-29.47-32.57-47.41-75.8-47.41-123.06c0-14.94,1.78-29.41,5.15-43.33
				c19.52-80.49,92.17-140.44,178.58-140.44c50.67,0,96.55,20.6,129.84,53.88l173.17,173.17c0,0-0.05,0-0.1,0.05
				c77.54,77.59,125.51,184.64,125.51,302.71c0,236.23-192.19,428.42-428.42,428.42c-113.17,0-216.25-44.15-292.92-116.08
				c0,0-184.03-184.23-186.37-186.22c-10.76-9.28-24.72-14.83-39.97-14.83c-6.83,0-13.36,1.12-19.52,3.21
				c-7.09,2.35-13.61,5.96-19.27,10.6c-3.11,2.55-6.02,5.45-8.57,8.56l-0.15,0.2C5.2,1071.72,0,1085.23,0,1100.01
				c0,14.53,5.05,27.78,13.41,38.28c2.86,3.57,183.11,183.27,183.11,183.27c12.9,12.64,26.36,24.57,40.43,35.79
				c94.26,75.55,213.8,120.72,343.69,120.72c303.67,0,550.76-247.04,550.76-550.76C1131.4,797.36,1086.18,677.82,1010.69,583.56z"/>
			<path class="st0" d="M120.71,894.51c12.45,15.55,213.7,218.64,213.7,218.64c45.78,45.78,105.93,77.18,173.02,86.71
				c14.17,2.04,28.6,3.06,43.33,3.06c122.4,0,228.28-72.24,277.17-176.33c18.56-39.41,28.9-83.45,28.9-129.79
				c0-14.73-1.07-29.21-3.11-43.38c-6.47-45.78-23.14-88.29-47.61-125.25c-9.18-13.87-19.47-26.97-30.74-39.1
				c-5.4-5.86-182.65-183.32-186.02-186.02c-10.5-8.56-24.01-13.66-38.59-13.66c-14.58,0-28.09,5.1-38.59,13.66
				c-3.36,2.7-6.42,5.76-9.13,9.13c-8.56,10.55-13.66,23.96-13.66,38.59c0,14.78,5.2,28.24,13.87,38.84l0.15,0.2
				c1.17,1.38,183.32,183.52,183.32,183.52l0.36,0.41c29.47,32.57,47.41,75.8,47.41,123.06c0,14.94-1.78,29.41-5.15,43.33
				c-19.52,80.49-92.17,140.44-178.58,140.44c-50.67,0-96.55-20.6-129.84-53.88L247.75,853.52c0,0,0.05,0,0.1-0.05
				c-77.54-77.59-125.51-184.64-125.51-302.71c0-236.23,192.19-428.42,428.42-428.42c113.17,0,216.25,44.15,292.92,116.08
				c0,0,184.03,184.23,186.37,186.22c10.76,9.28,24.72,14.83,39.97,14.83c6.83,0,13.36-1.12,19.52-3.21
				c7.09-2.35,13.61-5.96,19.27-10.6c3.11-2.55,6.02-5.45,8.57-8.56l0.15-0.2c8.67-10.55,13.87-24.06,13.87-38.85
				c0-14.53-5.05-27.78-13.41-38.28c-2.86-3.57-183.11-183.27-183.11-183.27c-12.9-12.64-26.36-24.57-40.42-35.79
				C800.2,45.17,680.65,0,550.76,0C247.09,0,0,247.04,0,550.76C0,680.71,45.22,800.25,120.71,894.51z"/>
		</g>
	</g>
</g>
</svg>
