<?xml version="1.0" encoding="utf-8"?>
<!-- Generator: Adobe Illustrator 25.4.1, SVG Export Plug-In . SVG Version: 6.00 Build 0)  -->
<svg version="1.1" id="Layer_1" xmlns="http://www.w3.org/2000/svg" xmlns:xlink="http://www.w3.org/1999/xlink" x="0px" y="0px"
	 viewBox="0 0 2075.61 1066.7" style="enable-background:new 0 0 2075.61 1066.7;" xml:space="preserve">
<style type="text/css">
	.st0{fill:#FFFFFF;}
	.st1{fill:#010101;}
	.st2{fill:#7763AB;}
</style>
<rect class="st0" width="2075.61" height="1066.7"/>
<g>
	<g>
		<path class="st1" d="M849.65,553.95c26.18,6.98,56.86,17.71,56.86,54.61c0,31.42-24.44,52.87-61.1,52.87
			c-26.68,0-46.14-10.47-62.84-29.68l20.95-19.2c10.72,11.97,22.69,21.45,41.9,21.45c20.95,0,31.67-10.47,31.67-24.94
			c0-15.96-17.95-21.7-38.15-26.93c-25.94-6.98-52.12-19.2-52.12-53.12c0-27.68,22.94-48.63,56.61-48.63
			c24.44,0,40.9,8.48,56.86,23.69l-20.7,18.95c-9.48-8.98-20.7-15.21-36.16-15.21c-15.71,0-26.93,7.48-26.93,20.45
			C816.48,542.72,831.45,549.21,849.65,553.95z"/>
		<path class="st1" d="M992.8,528.01c38.15,0,67.58,28.68,67.58,66.33s-29.43,66.58-67.58,66.58c-38.4,0-67.58-28.93-67.58-66.58
			S954.39,528.01,992.8,528.01z M1031.2,594.35c0-21.2-16.46-38.65-38.41-38.65c-22.44,0-38.4,17.46-38.4,38.65
			c0,21.45,15.96,38.9,38.4,38.9C1014.74,633.25,1031.2,615.79,1031.2,594.35z"/>
		<path class="st1" d="M1087.82,602.82v-72.07h28.93v68.33c0,24.44,10.97,34.41,27.68,34.41c16.71,0,27.43-9.97,27.43-34.41v-68.33
			h28.93v72.07c0,41.4-29.43,58.11-56.36,58.11S1087.82,644.22,1087.82,602.82z"/>
		<path class="st1" d="M1239.19,658.19V477.14h28.93v181.05H1239.19z"/>
		<path class="st1" d="M1306.27,658.19V483.62h37.65l55.36,87.78h0.25l55.36-87.78h37.66l-0.25,174.56h-37.41V550.21L1402.78,633
			h-6.73l-52.12-83.04v108.23H1306.27z"/>
		<path class="st1" d="M1545.43,473.4c11.47,0,20.7,9.48,20.7,20.7c0,11.47-9.23,20.7-20.7,20.7c-11.47,0-20.45-9.23-20.45-20.7
			C1524.99,482.87,1533.96,473.4,1545.43,473.4z M1527.23,658.19V528.76h36.66v129.43H1527.23z"/>
		<path class="st1" d="M1596.81,658.19V528.76h34.91l-0.25,18.45c5.74-11.22,19.2-21.2,38.66-21.2c26.43,0,48.13,15.46,48.13,56.36
			v75.81h-36.66v-67.33c0-19.7-9.23-29.18-23.69-29.18c-14.46,0-24.44,11.72-24.44,29.93v66.58H1596.81z"/>
		<path class="st1" d="M1755.17,563.17h-19.95v-34.41h8.73c8.48,0,12.22-3.74,13.22-11.97l2-23.69h32.67v35.66H1824v34.41h-32.17
			v46.63c0,11.47,7.23,15.46,16.71,15.46c7.98,0,11.72-0.5,18.21-1.5v34.16c-8.23,1.99-14.96,2.74-25.94,2.74
			c-25.94,0-45.64-14.96-45.64-47.38V563.17z"/>
	</g>
</g>
<g>
	<g>
		<path class="st2" d="M662.59,511.05c-4.51-5.64-77.47-79.26-77.47-79.26c-16.59-16.59-38.4-27.98-62.72-31.43
			c-5.14-0.74-10.37-1.11-15.71-1.11c-44.37,0-82.75,26.19-100.47,63.92c-6.73,14.28-10.48,30.25-10.48,47.05
			c0,5.34,0.39,10.59,1.13,15.73c2.35,16.59,8.39,32.01,17.26,45.4c3.33,5.03,7.06,9.78,11.14,14.17
			c1.96,2.12,66.21,66.45,67.43,67.43c3.81,3.1,8.7,4.95,13.99,4.95s10.18-1.85,13.99-4.95c1.22-0.98,2.33-2.09,3.31-3.31
			c3.1-3.83,4.95-8.69,4.95-13.99c0-5.36-1.88-10.24-5.03-14.08l-0.06-0.07c-0.42-0.5-66.45-66.53-66.45-66.53l-0.13-0.15
			c-10.68-11.81-17.19-27.48-17.19-44.61c0-5.41,0.65-10.66,1.87-15.71c7.08-29.18,33.41-50.91,64.73-50.91
			c18.37,0,35,7.47,47.07,19.53l62.78,62.78c0,0-0.02,0-0.04,0.02c28.11,28.13,45.5,66.93,45.5,109.73
			c0,85.63-69.67,155.3-155.3,155.3c-41.02,0-78.39-16-106.18-42.08c0,0-66.71-66.79-67.56-67.51c-3.9-3.36-8.96-5.38-14.49-5.38
			c-2.48,0-4.84,0.41-7.08,1.16c-2.57,0.85-4.93,2.16-6.99,3.84c-1.13,0.92-2.18,1.98-3.1,3.1l-0.06,0.07
			c-3.14,3.83-5.03,8.72-5.03,14.08c0,5.27,1.83,10.07,4.86,13.88c1.03,1.29,66.38,66.43,66.38,66.43
			c4.68,4.58,9.55,8.91,14.65,12.97c34.17,27.39,77.5,43.76,124.59,43.76c110.08,0,199.65-89.55,199.65-199.65
			C706.35,588.56,689.96,545.22,662.59,511.05z"/>
		<path class="st2" d="M339.97,623.77c4.51,5.64,77.47,79.26,77.47,79.26c16.59,16.59,38.4,27.98,62.72,31.43
			c5.14,0.74,10.37,1.11,15.71,1.11c44.37,0,82.75-26.19,100.47-63.92c6.73-14.28,10.48-30.25,10.48-47.05
			c0-5.34-0.39-10.59-1.13-15.73c-2.35-16.59-8.39-32.01-17.26-45.4c-3.33-5.03-7.06-9.78-11.14-14.17
			c-1.96-2.12-66.21-66.45-67.43-67.43c-3.81-3.1-8.7-4.95-13.99-4.95s-10.18,1.85-13.99,4.95c-1.22,0.98-2.33,2.09-3.31,3.31
			c-3.1,3.83-4.95,8.69-4.95,13.99c0,5.36,1.88,10.24,5.03,14.08l0.06,0.07c0.42,0.5,66.45,66.53,66.45,66.53l0.13,0.15
			c10.68,11.81,17.19,27.48,17.19,44.61c0,5.41-0.65,10.66-1.87,15.71c-7.08,29.18-33.41,50.91-64.73,50.91
			c-18.37,0-35-7.47-47.07-19.53l-62.78-62.78c0,0,0.02,0,0.04-0.02c-28.11-28.13-45.5-66.93-45.5-109.73
			c0-85.63,69.67-155.3,155.3-155.3c41.02,0,78.39,16,106.18,42.08c0,0,66.71,66.79,67.56,67.51c3.9,3.36,8.96,5.38,14.49,5.38
			c2.48,0,4.84-0.41,7.08-1.16c2.57-0.85,4.93-2.16,6.99-3.84c1.13-0.92,2.18-1.98,3.1-3.1l0.06-0.07
			c3.14-3.83,5.03-8.72,5.03-14.08c0-5.27-1.83-10.07-4.86-13.88c-1.03-1.29-66.38-66.43-66.38-66.43
			c-4.68-4.58-9.55-8.91-14.65-12.97c-34.17-27.39-77.5-43.76-124.59-43.76c-110.08,0-199.65,89.55-199.65,199.65
			C296.21,546.27,312.61,589.6,339.97,623.77z"/>
	</g>
</g>
</svg>
