<?xml version="1.0" encoding="utf-8"?>
<!-- Generator: Adobe Illustrator 25.4.1, SVG Export Plug-In . SVG Version: 6.00 Build 0)  -->
<svg version="1.1" id="Layer_1" xmlns="http://www.w3.org/2000/svg" xmlns:xlink="http://www.w3.org/1999/xlink" x="0px" y="0px"
	 viewBox="0 0 361.2 115.6" style="enable-background:new 0 0 361.2 115.6;" xml:space="preserve">
<style type="text/css">
	.st0{fill:#010101;}
	.st1{fill:#7C3AED;}
</style>
<g>
	<g>
		<g>
			<path class="st0" d="M133.6,55.1c6.1,1.6,13.2,4.1,13.2,12.7c0,7.3-5.7,12.3-14.2,12.3c-6.2,0-10.8-2.4-14.6-6.9l4.9-4.5
				c2.5,2.8,5.3,5,9.8,5c4.9,0,7.4-2.4,7.4-5.8c0-3.7-4.2-5-8.9-6.3c-6-1.6-12.1-4.5-12.1-12.4c0-6.5,5.3-11.3,13.2-11.3
				c5.7,0,9.5,2,13.2,5.5l-4.8,4.4c-2.2-2.1-4.8-3.5-8.4-3.5c-3.7,0-6.3,1.7-6.3,4.8C125.9,52.5,129.3,54,133.6,55.1z"/>
			<path class="st0" d="M166.9,49.1c8.9,0,15.7,6.7,15.7,15.4S175.8,80,166.9,80c-8.9,0-15.7-6.7-15.7-15.5S158,49.1,166.9,49.1z
				 M175.9,64.5c0-4.9-3.8-9-8.9-9c-5.2,0-8.9,4.1-8.9,9c0,5,3.7,9.1,8.9,9.1C172,73.6,175.9,69.5,175.9,64.5z"/>
			<path class="st0" d="M189.1,66.5V49.7h6.7v15.9c0,5.7,2.6,8,6.4,8s6.4-2.3,6.4-8V49.7h6.7v16.8c0,9.6-6.9,13.5-13.1,13.5
				S189.1,76.1,189.1,66.5z"/>
			<path class="st0" d="M224.3,79.4V37.2h6.7v42.2H224.3z"/>
			<path class="st0" d="M239.9,79.4V38.7h8.8l12.9,20.5h0.1l12.9-20.5h8.8l-0.1,40.7h-8.7V54.2l-12.1,19.3h-1.6l-12.1-19.3v25.2
				H239.9z"/>
			<path class="st0" d="M295.6,36.3c2.7,0,4.8,2.2,4.8,4.8c0,2.7-2.1,4.8-4.8,4.8s-4.8-2.2-4.8-4.8C290.9,38.6,293,36.3,295.6,36.3z
				 M291.4,79.4V49.2h8.5v30.1H291.4z"/>
			<path class="st0" d="M307.6,79.4V49.2h8.1l-0.1,4.3c1.3-2.6,4.5-4.9,9-4.9c6.2,0,11.2,3.6,11.2,13.1v17.7h-8.5V63.7
				c0-4.6-2.1-6.8-5.5-6.8s-5.7,2.7-5.7,7v15.5H307.6z"/>
			<path class="st0" d="M344.5,57.3h-4.6v-8h2c2,0,2.9-0.9,3.1-2.8l0.5-5.5h7.6v8.3h7.5v8H353v10.9c0,2.7,1.7,3.6,3.9,3.6
				c1.9,0,2.7-0.1,4.2-0.3v8c-1.9,0.5-3.5,0.6-6,0.6c-6,0-10.6-3.5-10.6-11L344.5,57.3L344.5,57.3z"/>
		</g>
	</g>
	<g>
		<g>
			<path class="st1" d="M79,45.6c-1-1.2-16.7-17.1-16.7-17.1c-3.6-3.6-8.3-6-13.5-6.8c-1.1-0.2-2.2-0.2-3.4-0.2
				c-9.6,0-17.9,5.6-21.7,13.8c-1.5,3.1-2.3,6.5-2.3,10.2c0,1.2,0.1,2.3,0.2,3.4c0.5,3.6,1.8,6.9,3.7,9.8c0.7,1.1,1.5,2.1,2.4,3.1
				c0.4,0.5,14.3,14.3,14.5,14.6c0.8,0.7,1.9,1.1,3,1.1s2.2-0.4,3-1.1c0.3-0.2,0.5-0.4,0.7-0.7c0.7-0.8,1.1-1.9,1.1-3
				c0-1.2-0.4-2.2-1.1-3l0,0C49,69.4,34.8,55.1,34.8,55.1l0,0c-2.3-2.5-3.7-5.9-3.7-9.6c0-1.2,0.1-2.3,0.4-3.4c1.5-6.3,7.2-11,14-11
				c4,0,7.5,1.6,10.2,4.2l13.5,13.5c0,0,0,0,0,0c6.1,6.1,9.8,14.4,9.8,23.7c0,18.5-15,33.5-33.5,33.5c-8.8,0-16.9-3.4-22.9-9.1
				c0,0-14.4-14.4-14.6-14.6c-0.8-0.7-1.9-1.2-3.1-1.2c-0.5,0-1,0.1-1.5,0.2c-0.5,0.2-1.1,0.5-1.5,0.8c-0.2,0.2-0.5,0.4-0.7,0.7l0,0
				C0.4,83.8,0,84.9,0,86c0,1.1,0.4,2.2,1,3c0.2,0.3,14.3,14.3,14.3,14.3c1,1,2.1,1.9,3.2,2.8c7.4,5.9,16.7,9.4,26.9,9.4
				c23.8,0,43.1-19.3,43.1-43.1C88.5,62.4,84.9,53,79,45.6z"/>
			<path class="st1" d="M9.4,69.9c1,1.2,16.7,17.1,16.7,17.1c3.6,3.6,8.3,6,13.5,6.8c1.1,0.2,2.2,0.2,3.4,0.2
				c9.6,0,17.9-5.7,21.7-13.8c1.4-3.1,2.3-6.5,2.3-10.2c0-1.2-0.1-2.3-0.2-3.4c-0.5-3.6-1.8-6.9-3.7-9.8c-0.7-1.1-1.5-2.1-2.4-3.1
				c-0.4-0.5-14.3-14.3-14.5-14.5c-0.8-0.7-1.9-1.1-3-1.1s-2.2,0.4-3,1.1c-0.3,0.2-0.5,0.5-0.7,0.7c-0.7,0.8-1.1,1.9-1.1,3
				c0,1.2,0.4,2.2,1.1,3l0,0c0.1,0.1,14.3,14.4,14.3,14.4l0,0c2.3,2.5,3.7,5.9,3.7,9.6c0,1.2-0.1,2.3-0.4,3.4c-1.5,6.3-7.2,11-14,11
				c-4,0-7.5-1.6-10.1-4.2L19.4,66.8c0,0,0,0,0,0c-6.1-6.1-9.8-14.4-9.8-23.7c0-18.5,15-33.5,33.5-33.5C51.9,9.6,60,13,66,18.7
				c0,0,14.4,14.4,14.6,14.6c0.8,0.7,1.9,1.2,3.1,1.2c0.5,0,1-0.1,1.5-0.2c0.6-0.2,1.1-0.5,1.5-0.8c0.2-0.2,0.5-0.4,0.7-0.7l0,0
				c0.7-0.8,1.1-1.9,1.1-3c0-1.1-0.4-2.2-1.1-3c-0.2-0.3-14.3-14.3-14.3-14.3c-1-1-2.1-1.9-3.2-2.8C62.6,3.5,53.2,0,43.1,0
				C19.3,0,0,19.3,0,43.1C0,53.2,3.5,62.6,9.4,69.9z"/>
		</g>
	</g>
</g>
</svg>
