<svg width="24" height="21" viewBox="0 0 24 21" fill="none" xmlns="http://www.w3.org/2000/svg">
<path fill-rule="evenodd" clip-rule="evenodd" d="M23.9849 9.30262L19.609 0.0980813C19.5713 0.0377236 19.5109 0 19.4505 0H4.54975C4.48939 0 4.42149 0.0377236 4.39131 0.0980813L0.0153812 9.28753C-0.0147976 9.36298 0.000291771 9.44597 0.0531047 9.49879L11.8757 20.8309C11.9586 20.8913 12.0492 20.8913 12.1246 20.8309L23.9396 9.49879C24 9.44597 24.0151 9.35544 23.9849 9.30262ZM13.5129 10.7286V16.5984H10.495V10.7437C7.09231 10.5701 4.52711 9.9062 4.52711 9.09137C4.52711 8.28409 7.09231 7.61261 10.495 7.45417V5.62835H6.30767V2.83681H17.7077V5.62835H13.5129V7.45417C16.908 7.61261 19.4581 8.29163 19.4581 9.09137C19.4581 9.9062 16.908 10.5701 13.5129 10.7286Z" fill="#50AF95"/>
</svg>
